<svg xmlns="http://www.w3.org/2000/svg" width="25" height="25" viewBox="0 0 25 25">
  <g id="Account" transform="translate(0.5 0.5)">
    <g id="COMPONENT_ICON_HOME_ACTIVE" data-name="COMPONENT / ICON /  HOME / ACTIVE">
      <circle id="Oval" cx="12" cy="12" r="12" fill="#8e8e93" stroke="#979797" stroke-miterlimit="10" stroke-width="1"/>
      <path id="_" data-name="" d="M11.681,11.725Q14,12.6,14,14H0q0-1.4,2.319-2.275a5.7,5.7,0,0,1,1.05-.241,8.226,8.226,0,0,0,.831-.153,2.012,2.012,0,0,0,.875-.394l.044-1.794a4.932,4.932,0,0,1-.394-.788l-.306-1.4q-.306,0-.394-.525a4.671,4.671,0,0,0-.153-.613,2.007,2.007,0,0,1-.109-.569.777.777,0,0,1,.044-.284.277.277,0,0,1,.131-.153h.044a7.793,7.793,0,0,1-.219-1.838A2.732,2.732,0,0,1,4.594.9,3.207,3.207,0,0,1,7,0,3.207,3.207,0,0,1,9.406.9a2.732,2.732,0,0,1,.831,2.078l-.219,1.838q.219.044.219.438,0,.088-.262,1.225a.976.976,0,0,1-.131.35A.5.5,0,0,1,9.669,7H9.581a8.985,8.985,0,0,1-.306,1.356l-.394.788a5.366,5.366,0,0,0,.044,1.794,2.012,2.012,0,0,0,.875.394,8.226,8.226,0,0,0,.831.153A5.7,5.7,0,0,1,11.681,11.725Z" transform="translate(5 5)" fill="#fff" stroke="#707070" stroke-width="1"/>
    </g>
  </g>
</svg>
