<svg id="Layer_2" data-name="Layer 2" xmlns="http://www.w3.org/2000/svg" width="23.008" height="26.957" viewBox="0 0 23.008 26.957">
  <g id="Layer_1" data-name="Layer 1" transform="translate(0)">
    <path id="Path_19" data-name="Path 19" d="M7.819,116.122H6.976c-.013-.011-.024-.03-.039-.032a4.452,4.452,0,0,1-2.42-1.395,14.132,14.132,0,0,1-2.215-3,15.618,15.618,0,0,1-2.272-8.992,8.1,8.1,0,0,1,.912-3.377,7.57,7.57,0,0,1,3.5-3.308,5.144,5.144,0,0,1,3.356-.447c.767.168,1.517.422,2.267.66a4.813,4.813,0,0,0,2.395.335,11.623,11.623,0,0,0,1.71-.5,8.856,8.856,0,0,1,2.524-.594,6.26,6.26,0,0,1,4.466,1.61c.39.33.73.716,1.105,1.089a5.687,5.687,0,0,0-3.026,5.629,5.842,5.842,0,0,0,3.771,5.145c-.016.051-.023.085-.036.117a20.462,20.462,0,0,1-2.626,4.485,5.855,5.855,0,0,1-3.463,2.572h-.739c-.623-.226-1.253-.431-1.867-.681a5.855,5.855,0,0,0-4.363-.073Z" transform="translate(0.001 -89.167)"/>
    <path id="Path_20" data-name="Path 20" d="M168.038,6.454C167.541,3.926,169.819.4,173.412,0,173.974,2.515,171.59,6.515,168.038,6.454Z" transform="translate(-156.892)"/>
  </g>
</svg>
