<svg xmlns="http://www.w3.org/2000/svg" width="25" height="25" viewBox="0 0 25 25">
  <g id="COMPONENT_ICON_TAB_BAR_CART_WHITE" data-name="COMPONENT / ICON / TAB BAR / CART / WHITE" transform="translate(0.5 0.5)">
    <path id="_" data-name="ï°" d="M17.134,23.268a2.433,2.433,0,0,1-.692-1.727,2.332,2.332,0,0,1,.692-1.7,2.262,2.262,0,0,1,1.673-.7,2.355,2.355,0,0,1,1.7.7,2.28,2.28,0,0,1,.722,1.7,2.377,2.377,0,0,1-.722,1.727,2.31,2.31,0,0,1-1.7.732A2.22,2.22,0,0,1,17.134,23.268Zm-11.8,0a2.38,2.38,0,0,1-.721-1.727,2.332,2.332,0,0,1,.692-1.7,2.456,2.456,0,0,1,1.732-.7,2.259,2.259,0,0,1,1.672.7,2.329,2.329,0,0,1,.693,1.7,2.43,2.43,0,0,1-.693,1.727A2.217,2.217,0,0,1,7.039,24,2.314,2.314,0,0,1,5.336,23.268Zm1.876-5.357a2.711,2.711,0,0,1-1.876-.643,2.306,2.306,0,0,1-.721-1.814A2.193,2.193,0,0,1,4.9,14.283L6.692,11.3,2.423,2.459H0V0H3.923l1.1,2.459H22.789a1.2,1.2,0,0,1,.836.351A1.09,1.09,0,0,1,24,3.63a1.313,1.313,0,0,1-.116.585l-4.326,7.551a2.155,2.155,0,0,1-2.077,1.288H8.538L7.327,14.926a1.661,1.661,0,0,0-.115.352.257.257,0,0,0,.288.292H21.231v2.341Z" fill="#8e8e93" stroke="#707070" stroke-width="1"/>
  </g>
</svg>
