<svg id="Layer_2" data-name="Layer 2" xmlns="http://www.w3.org/2000/svg" width="14.595" height="26.96" viewBox="0 0 14.595 26.96">
  <g id="Layer_1" data-name="Layer 1" transform="translate(0 0)">
    <path id="Path_21" data-name="Path 21" d="M4.106,20.905c0-1.741-.007-3.48.007-5.22,0-.325-.085-.443-.424-.436-.908.02-1.816.009-2.725.006-.75,0-.923-.181-.923-.935V10.544c0-.686.193-.875.884-.877.93,0,1.861-.01,2.791,0,.3,0,.4-.086.4-.4-.015-1.028-.04-2.059.007-3.085a6.224,6.224,0,0,1,2.45-4.977,6.221,6.221,0,0,1,3.654-1.2c1.2-.033,2.407-.011,3.611-.008.583,0,.8.21.8.791q.008,1.839,0,3.678c0,.571-.2.778-.768.791-.8.018-1.6.009-2.4.016-1.253.011-1.623.381-1.626,1.632,0,.791.009,1.576-.009,2.364-.007.307.106.4.4.4,1.1-.013,2.21-.007,3.316,0,.726,0,.9.167.9.881v3.874c0,.664-.165.828-.84.832-1.117.005-2.233.013-3.349,0-.335-.005-.429.108-.428.435Q9.844,20.7,9.834,25.7v.361c-.011.708-.195.892-.9.894H4.925c-.633,0-.817-.188-.818-.827Q4.1,23.513,4.106,20.905Z" transform="translate(-0.04 0.003)" fill="#3c6ad6"/>
  </g>
</svg>
