<svg id="Search_Glyph" data-name="Search Glyph" xmlns="http://www.w3.org/2000/svg" width="14" height="14" viewBox="0 0 14 14">
  <path id="_" data-name="" d="M11.761,13.89,8.7,10.755a5.534,5.534,0,0,1-2.913.838A5.593,5.593,0,0,1,1.711,9.9,5.561,5.561,0,0,1,0,5.8,5.562,5.562,0,0,1,1.711,1.7,5.593,5.593,0,0,1,5.789,0a5.533,5.533,0,0,1,4.06,1.7,5.591,5.591,0,0,1,1.693,4.1,5.55,5.55,0,0,1-.764,2.843l3.095,3.136a.319.319,0,0,1,0,.51l-1.566,1.6a.394.394,0,0,1-.291.11A.35.35,0,0,1,11.761,13.89Z" transform="translate(0 0)" fill="#8e8e93"/>
</svg>
