<svg xmlns="http://www.w3.org/2000/svg" width="21.666" height="23.969" viewBox="0 0 21.666 23.969">
  <path id="Path_1" data-name="Path 1" d="M1001.2,254.113c.313.059.632.1.937.182a3.9,3.9,0,0,1-.5,7.592,3.822,3.822,0,0,1-3.43-1.164l-.108-.112a.289.289,0,0,0-.04-.023L992.152,264a10.637,10.637,0,0,1,.142,1.5,11.075,11.075,0,0,1-.268,1.515l6.041,3.489a3.92,3.92,0,0,1,3.182-1.363,3.82,3.82,0,0,1,2.543,1.1,3.933,3.933,0,1,1-6.45,1.5l-1.732-1c-1.429-.825-2.859-1.647-4.285-2.478a.256.256,0,0,0-.361.036,3.907,3.907,0,0,1-6.471-3.235,3.918,3.918,0,0,1,6.745-2.4c.084.083.139.147.276.067q2.882-1.675,5.77-3.339c.019-.011.035-.027.019-.015a11.986,11.986,0,0,1-.161-1.363,3.881,3.881,0,0,1,3.547-3.856,1.85,1.85,0,0,0,.2-.037Z" transform="translate(-983.97 -253.613)" stroke="rgba(0,0,0,0)" stroke-width="1"/>
</svg>
