<svg xmlns="http://www.w3.org/2000/svg" width="25" height="24" viewBox="0 0 25 24">
  <g id="COMPONENT_ICON_LOVE_DEFAULT" data-name="COMPONENT / ICON /  LOVE / DEFAULT" transform="translate(0.5)">
    <path id="_" data-name="" d="M12,22l-1.731-1.547q-3-2.75-4.327-4.01T2.913,13.234A12.771,12.771,0,0,1,.606,9.768,8.5,8.5,0,0,1,0,6.589a6.355,6.355,0,0,1,1.9-4.7A6.376,6.376,0,0,1,6.577,0,6.8,6.8,0,0,1,12,2.521,6.8,6.8,0,0,1,17.423,0,6.48,6.48,0,0,1,24,6.589a8.5,8.5,0,0,1-.606,3.18,12.771,12.771,0,0,1-2.308,3.466q-1.7,1.948-3.029,3.208t-4.327,4.01Z" transform="translate(0 1)" fill="#8e8e93" stroke="#707070" stroke-width="1"/>
  </g>
</svg>
